<svg width="245" height="216" viewBox="0 0 245 216" fill="none" xmlns="http://www.w3.org/2000/svg">
<path d="M230.419 93.1835C232.09 93.1835 244.064 104.91 244.064 104.91C246.222 81.183 224.849 61.4336 224.849 61.4336L239.678 68.5653C227.634 43.1243 203.755 25.0206 175.699 20.0833C163.377 17.8889 155.092 17.4775 155.092 17.4775L143.745 16.106C140.542 12.5401 137.688 9.45427 136.504 7.73991C132.954 2.45969 117.429 0.676758 117.429 0.676758C117.429 0.676758 116.454 12.8144 116.942 20.0147L108.657 22.7577C104.41 17.8203 69.9497 4.37977 69.9497 4.37977C66.2599 3.7626 66.2599 5.20266 66.8168 6.437C67.6523 8.15136 68.3484 9.93429 68.9054 11.7858C70.7851 18.3004 74.1963 26.255 75.171 33.3867C76.2152 41.1356 75.4495 47.9245 74.8925 51.2846L59.2981 65.4795L48.8555 102.167C48.8555 102.167 1.7242 129.116 0.679929 136.18C-0.433956 143.174 18.5717 158.055 18.5717 158.055L29.7106 156.409L36.742 164.981C81.6454 155.998 99.6765 148.523 105.107 145.78C107.613 144.546 110.398 143.997 113.182 144.271L124.948 147.563C129.96 148.454 132.327 154.077 129.542 158.26L103.157 198.239C131.074 193.371 157.947 159.906 157.947 159.906L125.574 216C205.008 192.822 216.077 122.259 216.077 122.259L217.052 147.494C240.026 120.613 228.818 93.1835 230.419 93.1835Z" fill="#1E1F41"/>
<path d="M224.298 171.187C226.982 171.187 229.375 171.791 231.477 173.001C233.625 174.211 235.28 175.892 236.443 178.043C237.651 180.149 238.255 182.546 238.255 185.235C238.255 187.923 237.651 190.343 236.443 192.494C235.28 194.6 233.625 196.258 231.477 197.468C229.375 198.678 226.982 199.283 224.298 199.283C221.613 199.283 219.198 198.678 217.051 197.468C214.948 196.258 213.293 194.6 212.085 192.494C210.877 190.343 210.273 187.923 210.273 185.235C210.273 182.546 210.877 180.149 212.085 178.043C213.293 175.892 214.948 174.211 217.051 173.001C219.198 171.791 221.613 171.187 224.298 171.187ZM224.298 196.191C227.518 196.191 230.091 195.183 232.014 193.166C233.982 191.15 234.967 188.506 234.967 185.235C234.967 181.963 233.982 179.32 232.014 177.303C230.091 175.287 227.518 174.278 224.298 174.278C221.032 174.278 218.437 175.287 216.514 177.303C214.59 179.32 213.628 181.963 213.628 185.235C213.628 188.506 214.59 191.15 216.514 193.166C218.437 195.183 221.032 196.191 224.298 196.191ZM230.471 182.546C230.471 183.532 230.225 184.406 229.733 185.167C229.241 185.884 228.57 186.422 227.72 186.781L231.276 192.292H226.176L223.224 187.251H222.754V192.292H218.527V177.841H225.304C226.87 177.841 228.122 178.289 229.062 179.185C230.001 180.037 230.471 181.157 230.471 182.546ZM222.754 183.823H225.036C225.394 183.823 225.684 183.733 225.908 183.554C226.176 183.33 226.311 183.039 226.311 182.68C226.311 182.322 226.176 182.053 225.908 181.874C225.684 181.695 225.394 181.605 225.036 181.605H222.754V183.823Z" fill="#1E1F41"/>
</svg>
