<svg width="639" height="216" viewBox="0 0 639 216" fill="none" xmlns="http://www.w3.org/2000/svg">
<path d="M229.786 92.5067C231.457 92.5067 243.431 104.233 243.431 104.233C245.589 80.5062 224.216 60.7568 224.216 60.7568L239.045 67.8885C227.001 42.4475 203.122 24.3439 175.066 19.4065C162.744 17.2121 154.459 16.8007 154.459 16.8007L143.112 15.4292C139.909 11.8634 137.055 8.77751 135.871 7.06315C132.321 1.78293 116.796 0 116.796 0C116.796 0 115.822 12.1377 116.309 19.338L108.024 22.0809C103.778 17.1436 69.3168 3.70301 69.3168 3.70301C65.6271 3.08584 65.6271 4.5259 66.184 5.76024C67.0195 7.4746 67.7156 9.25753 68.2726 11.109C70.1523 17.6236 73.5635 25.5782 74.5382 32.7099C75.5824 40.4588 74.8167 47.2477 74.2597 50.6078L58.6653 64.8027L48.2226 101.49C48.2226 101.49 1.09138 128.44 0.0471166 135.503C-1.06677 142.497 17.9389 157.378 17.9389 157.378L29.0777 155.732L36.1091 164.304C81.0126 155.321 99.0437 147.846 104.474 145.103C106.98 143.869 109.765 143.32 112.55 143.595L124.315 146.886C129.327 147.778 131.694 153.401 128.91 157.584L102.525 197.563C130.441 192.694 157.314 159.23 157.314 159.23L124.941 215.323C204.375 192.145 215.445 121.582 215.445 121.582L216.419 146.818C239.393 119.936 228.185 92.5067 229.786 92.5067Z" fill="#1E1F41"/>
<path d="M231.939 32.5869H260.309L282.098 76.4811L299.573 41.5246L311.246 66.0206L280.118 128.916L231.939 32.5869Z" fill="#1E1F41"/>
<path d="M331.336 32.7358L356.757 32.9345L313.271 129.065L300.109 100.53L331.336 32.7358Z" fill="#1E1F41"/>
<path d="M407.549 55.2525V44.2631L419.638 32.5869H492.52V55.2525H407.549Z" fill="#1E1F41"/>
<path d="M408.367 60.9194H436.372V67.9073L479.914 68.0416L492.52 80.1359V116.688L480.255 128.916H408.026L407.549 104.593L464.787 104.257V92.4318L420.632 92.2302L408.298 80.0687L408.367 60.9194Z" fill="#1E1F41"/>
<path d="M503.85 32.5869V57.9316L539.962 57.7261V134.582H563.832L563.969 57.7261L600.15 57.9316V32.5869H503.85Z" fill="#1E1F41"/>
<path d="M390.552 32.5869H367.893V128.916H390.552V32.5869Z" fill="#1E1F41"/>
<path d="M624.853 31.8066C627.401 31.8066 629.672 32.3809 631.668 33.5293C633.706 34.6778 635.277 36.2728 636.381 38.3145C637.528 40.3137 638.101 42.5893 638.101 45.1414C638.101 47.6935 637.528 49.9904 636.381 52.0321C635.277 54.0312 633.706 55.605 631.668 56.7535C629.672 57.9019 627.401 58.4761 624.853 58.4761C622.305 58.4761 620.012 57.9019 617.974 56.7535C615.978 55.605 614.407 54.0312 613.261 52.0321C612.114 49.9904 611.541 47.6935 611.541 45.1414C611.541 42.5893 612.114 40.3137 613.261 38.3145C614.407 36.2728 615.978 34.6778 617.974 33.5293C620.012 32.3809 622.305 31.8066 624.853 31.8066ZM624.853 55.5412C627.91 55.5412 630.352 54.5842 632.178 52.6701C634.046 50.756 634.98 48.2464 634.98 45.1414C634.98 42.0363 634.046 39.5268 632.178 37.6127C630.352 35.6986 627.91 34.7416 624.853 34.7416C621.753 34.7416 619.29 35.6986 617.465 37.6127C615.639 39.5268 614.726 42.0363 614.726 45.1414C614.726 48.2464 615.639 50.756 617.465 52.6701C619.29 54.5842 621.753 55.5412 624.853 55.5412ZM630.713 42.5893C630.713 43.5251 630.479 44.3545 630.012 45.0776C629.545 45.7581 628.908 46.2686 628.101 46.6088L631.477 51.8407H626.636L623.834 47.0555H623.388V51.8407H619.375V38.1231H625.808C627.295 38.1231 628.483 38.5484 629.375 39.3991C630.267 40.2073 630.713 41.2707 630.713 42.5893ZM623.388 43.8015H625.554C625.893 43.8015 626.169 43.7165 626.382 43.5463C626.636 43.3336 626.764 43.0572 626.764 42.7169C626.764 42.3766 626.636 42.1214 626.382 41.9513C626.169 41.7811 625.893 41.696 625.554 41.696H623.388V43.8015Z" fill="#1E1F41"/>
</svg>
